<svg id="Layer_1" data-name="Layer 1" xmlns="http://www.w3.org/2000/svg" viewBox="0 0 218.21 217.72"><defs><style>.cls-1{stroke:#000;stroke-miterlimit:10;stroke-width:0.25px;}</style></defs><g id="Header_-_dark" data-name="Header - dark"><path class="cls-1" d="M36.86,109.69a7.45,7.45,0,0,1-.66,3.16,6.52,6.52,0,0,1-1.78,2.33,8,8,0,0,1-2.53,1.39,8.87,8.87,0,0,1-2.95.49H24.58V93.66h3a7.45,7.45,0,0,1,2,.27,5.53,5.53,0,0,1,1.74.8,3.76,3.76,0,0,1,1.24,1.48,4.82,4.82,0,0,1,.45,2.14,5.07,5.07,0,0,1-.46,2.18,4.5,4.5,0,0,1-1.22,1.61A5.92,5.92,0,0,1,30,103a10.69,10.69,0,0,1,1.92.33,8.24,8.24,0,0,1,2.51,1.17,5.41,5.41,0,0,1,1.8,2.14A7.05,7.05,0,0,1,36.86,109.69ZM31.92,98.35A4,4,0,0,0,27.59,94H25.92v8.87H29a3.71,3.71,0,0,0,1.77-1.13A5,5,0,0,0,31.92,98.35Zm-3,18.23a5.83,5.83,0,0,0,4.57-1.91,7.31,7.31,0,0,0,1.69-5,6.21,6.21,0,0,0-1.66-4.59,6.24,6.24,0,0,0-4.6-1.65l-3,0v13.1h3Z"/><path class="cls-1" d="M43,100a12.27,12.27,0,0,1,16.22-5.81A12,12,0,0,1,65,110.21,12.3,12.3,0,0,1,48.77,116,12,12,0,0,1,43,100Zm15,16.15a9.13,9.13,0,0,0,5.58-5.64A13.09,13.09,0,0,0,58,94.86a9.2,9.2,0,0,0-13.47,4.85,13,13,0,0,0,5.61,15.58A9.09,9.09,0,0,0,58,116.11Z"/><path class="cls-1" d="M83.34,93.64V94H77.5v23H75.74V94H69.89v-.37Z"/><path class="cls-1" d="M100.48,117.17H98.7l-1.42-4.92,0-.12L96.34,109H89.47l-.89,3.33L88,114.67l0,.08,0,0-.63,2.37h-.49l1.76-6.51,4-14.81-.63-2.21h1.66l0,.31,5.31,18,.93,3.13a.36.36,0,0,0,0,.11v0Zm-4.29-8.72L93.76,99.9v-.05l-1-3.28-3.18,11.88Z"/><path class="cls-1" d="M123,93.64v23.42h-1.76v-1.42L108.92,94.73v22.33h-1.75V93.64h1.54l.6,1v0L111,97.61l0,.06,10.12,17.19V93.64Z"/><path class="cls-1" d="M130.12,117.06V93.64h1.75v23.42Z"/><path class="cls-1" d="M158.61,110.72l2-.25a12.14,12.14,0,0,1-4.46,5,11.92,11.92,0,0,1-6.58,1.9,11.47,11.47,0,0,1-8.46-3.52,12.13,12.13,0,0,1,0-17.05,11.45,11.45,0,0,1,8.46-3.54,12,12,0,0,1,6.58,1.9,12.2,12.2,0,0,1,4.46,5l-2-.21a11.11,11.11,0,0,0-3.71-4.61,9,9,0,0,0-5.33-1.74,8.84,8.84,0,0,0-7,3.43,13.26,13.26,0,0,0,0,16.55,8.82,8.82,0,0,0,7,3.44,9,9,0,0,0,5.33-1.73A11.11,11.11,0,0,0,158.61,110.72Z"/><path class="cls-1" d="M179.13,117.17h-1.77l-1.42-4.92,0-.12L175,109h-6.86l-.89,3.33-.63,2.37,0,.08v0l-.64,2.37h-.49l1.76-6.51,4-14.81-.63-2.21h1.65l0,.31,5.32,18,.92,3.13a.76.76,0,0,1,0,.11l0,0Zm-4.29-8.72-2.42-8.55,0-.05-1-3.28-3.17,11.88Z"/><path class="cls-1" d="M193.62,116.7v.36h-7.73V93.64h1.79V116.7Z"/><path class="cls-1" d="M63.43,133.16a1.49,1.49,0,0,1-.79,1.33,3.25,3.25,0,0,1-1.73.49,3.44,3.44,0,0,1-1.55-.38,1.61,1.61,0,0,1-.92-1.24.35.35,0,0,1,0-.12c0-.12.12-.19.37-.19s.31.06.34.17a1.68,1.68,0,0,0,1.81,1.36,2.42,2.42,0,0,0,1.18-.36,1.14,1.14,0,0,0,.59-1,.83.83,0,0,0-.58-.76,3.41,3.41,0,0,0-1.09-.27c-.26,0-.54-.07-.83-.13a3.29,3.29,0,0,1-.8-.28,1.41,1.41,0,0,1-.84-1.32,1.3,1.3,0,0,1,.83-1.27A3.93,3.93,0,0,1,61,128.8a3,3,0,0,1,1.4.34,1.68,1.68,0,0,1,.87,1.09.62.62,0,0,1,0,.11c0,.12-.12.18-.37.18s-.32-.05-.35-.17A1.42,1.42,0,0,0,61,129.2a2.42,2.42,0,0,0-1.11.29,1,1,0,0,0-.56.94c0,.31.21.56.64.75a3.28,3.28,0,0,0,.63.19,3.64,3.64,0,0,0,.55.09c.29,0,.59.08.88.14a2.48,2.48,0,0,1,.8.32A1.4,1.4,0,0,1,63.43,133.16Z"/><path class="cls-1" d="M73,135a.46.46,0,0,1-.41-.15l-2.22-3-1.06,1v2q0,.18-.36.18t-.36-.18V129q0-.18.36-.18t.36.18v3.2l3.54-3.3a.41.41,0,0,1,.27-.08l.15,0c.11,0,.16.07.16.14a.13.13,0,0,1,0,.07l-2.47,2.29,2.48,3.36a.16.16,0,0,1,0,.08q0,.12-.21.18A.85.85,0,0,1,73,135Z"/><path class="cls-1" d="M79,134.78c0,.13-.12.2-.36.2s-.36-.07-.36-.2V129c0-.13.12-.2.36-.2s.36.07.36.2Z"/><path class="cls-1" d="M88.78,135a.45.45,0,0,1-.4-.15l-3.73-5.08v5.09c0,.09-.08.14-.26.14s-.26,0-.26-.14v-5.79c0-.17.15-.25.44-.25a.5.5,0,0,1,.41.14L88.7,134v-5.09c0-.09.09-.14.26-.14s.26,0,.26.14v5.8C89.22,134.9,89.08,135,88.78,135Z"/><path class="cls-1" d="M103.79,133.16a1.49,1.49,0,0,1-.79,1.33,3.25,3.25,0,0,1-1.73.49,3.44,3.44,0,0,1-1.55-.38,1.64,1.64,0,0,1-.93-1.24.68.68,0,0,1,0-.12c0-.12.12-.19.37-.19s.31.06.34.17a1.68,1.68,0,0,0,1.81,1.36,2.42,2.42,0,0,0,1.18-.36,1.14,1.14,0,0,0,.59-1,.83.83,0,0,0-.58-.76,3.41,3.41,0,0,0-1.09-.27c-.26,0-.54-.07-.83-.13a3.29,3.29,0,0,1-.8-.28,1.41,1.41,0,0,1-.84-1.32,1.3,1.3,0,0,1,.83-1.27,3.93,3.93,0,0,1,1.56-.37,3,3,0,0,1,1.4.34,1.68,1.68,0,0,1,.87,1.09.62.62,0,0,1,0,.11c0,.12-.12.18-.37.18s-.32-.05-.35-.17a1.42,1.42,0,0,0-1.58-1.15,2.42,2.42,0,0,0-1.11.29,1,1,0,0,0-.56.94c0,.31.21.56.64.75a3.28,3.28,0,0,0,.63.19,3.64,3.64,0,0,0,.55.09c.29,0,.59.08.88.14a2.48,2.48,0,0,1,.8.32A1.4,1.4,0,0,1,103.79,133.16Z"/><path class="cls-1" d="M113.83,132.88c.24,0,.35.06.35.2a.81.81,0,0,1-.05.25,2,2,0,0,1-1,1.23,3.19,3.19,0,0,1-1.57.42,2.63,2.63,0,0,1-2.09-.86,3.2,3.2,0,0,1-.75-2.19,3.35,3.35,0,0,1,.75-2.24,2.68,2.68,0,0,1,2.16-.89,3.06,3.06,0,0,1,1.58.45,1.87,1.87,0,0,1,.93,1.29.49.49,0,0,1,0,.15q0,.21-.36.21t-.36-.18a1.61,1.61,0,0,0-1.82-1.52,1.82,1.82,0,0,0-1.66.85,3.38,3.38,0,0,0-.54,1.85,3.51,3.51,0,0,0,.51,1.83,1.76,1.76,0,0,0,1.62.85,1.94,1.94,0,0,0,1.23-.43,1.61,1.61,0,0,0,.67-1.09Q113.5,132.88,113.83,132.88Z"/><path class="cls-1" d="M119.84,134.78c0,.13-.12.2-.36.2s-.36-.07-.36-.2V129c0-.13.12-.2.36-.2s.36.07.36.2Z"/><path class="cls-1" d="M125,129.1c0-.13.12-.19.35-.19h4c.23,0,.35.06.35.19s-.12.21-.35.21h-3.62v2.37h3.09q.36,0,.36.21c0,.13-.12.2-.36.2h-3.09v2.38h3.62c.23,0,.35.07.35.2s-.12.2-.35.2h-4c-.23,0-.35-.07-.35-.2Z"/><path class="cls-1" d="M139.61,135a.45.45,0,0,1-.4-.15l-3.73-5.08v5.09c0,.09-.09.14-.26.14s-.26,0-.26-.14v-5.79c0-.17.15-.25.44-.25a.52.52,0,0,1,.41.14l3.72,5.09v-5.09c0-.09.09-.14.26-.14s.26,0,.26.14v5.8C140.05,134.9,139.9,135,139.61,135Z"/><path class="cls-1" d="M150.31,132.88c.24,0,.36.06.36.2a.93.93,0,0,1-.06.25,2,2,0,0,1-1,1.23,3.15,3.15,0,0,1-1.56.42,2.65,2.65,0,0,1-2.1-.86,3.2,3.2,0,0,1-.75-2.19,3.35,3.35,0,0,1,.75-2.24,2.68,2.68,0,0,1,2.16-.89,3,3,0,0,1,1.58.45,1.85,1.85,0,0,1,.93,1.29.49.49,0,0,1,0,.15q0,.21-.36.21t-.36-.18a1.61,1.61,0,0,0-1.82-1.52,1.82,1.82,0,0,0-1.66.85,3.38,3.38,0,0,0-.54,1.85,3.51,3.51,0,0,0,.51,1.83,1.79,1.79,0,0,0,1.63.85,2,2,0,0,0,1.23-.43,1.69,1.69,0,0,0,.67-1.09C150,132.94,150.09,132.88,150.31,132.88Z"/><path class="cls-1" d="M155.83,129.1c0-.13.12-.19.35-.19h4c.24,0,.36.06.36.19s-.12.21-.36.21h-3.62v2.37h3.1q.36,0,.36.21c0,.13-.12.2-.36.2h-3.1v2.38h3.62c.24,0,.36.07.36.2s-.12.2-.36.2h-4c-.23,0-.35-.07-.35-.2Z"/></g></svg>