<svg id="Layer_1" data-name="Layer 1" xmlns="http://www.w3.org/2000/svg" viewBox="0 0 218.21 217.72"><defs><style>.cls-1{fill:#eeebdd;stroke:#eeebdd;stroke-miterlimit:10;stroke-width:0.25px;}</style></defs><g id="Header_-_dark" data-name="Header - dark"><path class="cls-1" d="M26.52,115.78h-9c-.61,0-.91-.17-.91-.51V96.41c0-.34.3-.51.91-.51h8.2a5.26,5.26,0,0,1,3.74,1.49A4.93,4.93,0,0,1,31,101.13a5.15,5.15,0,0,1-2.58,4.51A5,5,0,0,1,32,110.55a4.86,4.86,0,0,1-1.62,3.76A5.52,5.52,0,0,1,26.52,115.78Zm-.84-10.44A3,3,0,0,0,28.22,104a4.61,4.61,0,0,0,0-5.68,3,3,0,0,0-2.54-1.36H18.37v8.41Zm.84,9.41a3.13,3.13,0,0,0,2.61-1.34,4.52,4.52,0,0,0,0-5.72,3.17,3.17,0,0,0-2.61-1.33H18.37v8.39Z"/><path class="cls-1" d="M48.6,116.13a8.78,8.78,0,0,1-7-3,11.66,11.66,0,0,1,0-14.63,8.76,8.76,0,0,1,7-3,8.76,8.76,0,0,1,7,3,11.7,11.7,0,0,1,0,14.63A8.78,8.78,0,0,1,48.6,116.13Zm0-1a6.6,6.6,0,0,0,5.78-2.87,11.33,11.33,0,0,0,0-12.8,6.59,6.59,0,0,0-5.78-2.86,6.58,6.58,0,0,0-5.78,2.86,11.29,11.29,0,0,0,0,12.8A6.59,6.59,0,0,0,48.6,115.11Z"/><path class="cls-1" d="M70.49,116c-.61,0-.91-.18-.91-.52V96.75H63.06c-.59,0-.89-.17-.89-.51s.3-.51.89-.51H77.9c.6,0,.89.17.89.51s-.29.51-.89.51H71.38v18.69C71.38,115.78,71.08,116,70.49,116Z"/><path class="cls-1" d="M100.22,116.13c-.57,0-.91-.13-1-.39l-2.78-6.52h-10l-2.81,6.69c-.06.15-.26.22-.6.22s-.53-.09-.53-.26a.43.43,0,0,1,0-.1l8.31-19.85c.11-.25.45-.37,1-.37s.94.13,1,.4l8.34,19.52a.46.46,0,0,1,.06.18C101.23,116,100.89,116.13,100.22,116.13ZM96,108.19,91.34,97.34,86.8,108.19Z"/><path class="cls-1" d="M123.51,116.13a1.28,1.28,0,0,1-1.08-.36l-13-18v18.09c0,.19-.19.29-.57.29s-.57-.1-.57-.29V96.21q0-.66,1.17-.66a1.24,1.24,0,0,1,1.07.38l13,18V95.86c0-.21.19-.31.57-.31s.57.1.57.31v19.63C124.68,115.92,124.29,116.13,123.51,116.13Z"/><path class="cls-1" d="M133,116.12c-.6,0-.9-.17-.9-.52V96.06q0-.51.9-.51t.9.51V115.6C133.93,116,133.63,116.12,133,116.12Z"/><path class="cls-1" d="M158.26,109.86a1.9,1.9,0,0,1-.06.35,6.53,6.53,0,0,1-3.1,4.38,9.86,9.86,0,0,1-5.27,1.54c-3.05,0-5.35-1-6.88-3a11.77,11.77,0,0,1-2.3-7.31,11,11,0,0,1,2.45-7.27,8.51,8.51,0,0,1,7-3,9.64,9.64,0,0,1,5.15,1.52,6.22,6.22,0,0,1,2.95,4.38,1.69,1.69,0,0,1,.06.38c0,.34-.31.5-.93.5s-.83-.15-.87-.47a5.61,5.61,0,0,0-2.2-3.84,6.67,6.67,0,0,0-4.16-1.44,6.36,6.36,0,0,0-5.74,2.87,11.36,11.36,0,0,0-1.88,6.34,12.18,12.18,0,0,0,1.75,6.36,6.06,6.06,0,0,0,5.63,3,7,7,0,0,0,4.3-1.48,5.86,5.86,0,0,0,2.34-3.83c.05-.29.34-.44.88-.44S158.26,109.53,158.26,109.86Z"/><path class="cls-1" d="M182.39,116.13c-.57,0-.91-.13-1-.39l-2.78-6.52h-10l-2.82,6.69c-.06.15-.26.22-.6.22s-.53-.09-.53-.26a.43.43,0,0,1,0-.1l8.31-19.85c.11-.25.45-.37,1-.37s.93.13,1,.4l8.33,19.52a.46.46,0,0,1,.06.18C183.4,116,183.06,116.13,182.39,116.13Zm-4.25-7.94-4.63-10.85L169,108.19Z"/><path class="cls-1" d="M202.67,115.78H191.39c-.61,0-.91-.17-.91-.51V96.06c0-.34.3-.51.91-.51s.89.17.89.51v18.69h10.39c.6,0,.91.18.91.52S203.27,115.78,202.67,115.78Z"/><path class="cls-1" d="M63.43,133.4a1.49,1.49,0,0,1-.79,1.33,3.17,3.17,0,0,1-1.73.49,3.44,3.44,0,0,1-1.55-.38,1.64,1.64,0,0,1-.93-1.23.83.83,0,0,1,0-.12c0-.13.12-.2.37-.2s.31.06.34.17a1.67,1.67,0,0,0,1.81,1.36,2.42,2.42,0,0,0,1.18-.36,1.12,1.12,0,0,0,.59-1,.84.84,0,0,0-.58-.76,3.69,3.69,0,0,0-1.09-.27c-.26,0-.54-.07-.83-.13a2.91,2.91,0,0,1-.8-.28,1.41,1.41,0,0,1-.84-1.32,1.3,1.3,0,0,1,.83-1.26A3.79,3.79,0,0,1,61,129a3.14,3.14,0,0,1,1.4.34,1.68,1.68,0,0,1,.87,1.09.49.49,0,0,1,0,.12c0,.12-.12.18-.37.18s-.32-.06-.35-.18A1.42,1.42,0,0,0,61,129.44a2.42,2.42,0,0,0-1.11.29,1,1,0,0,0-.56.94c0,.31.21.56.64.75a2.7,2.7,0,0,0,.63.19,3.64,3.64,0,0,0,.55.09c.29,0,.59.08.88.14a2.48,2.48,0,0,1,.8.32A1.4,1.4,0,0,1,63.43,133.4Z"/><path class="cls-1" d="M73,135.22a.46.46,0,0,1-.41-.15l-2.22-3-1.06,1v2q0,.18-.36.18t-.36-.18v-5.82q0-.18.36-.18t.36.18v3.2l3.54-3.3a.41.41,0,0,1,.27-.08l.15,0c.11,0,.16.07.16.14a.13.13,0,0,1,0,.07l-2.47,2.29,2.48,3.36a.16.16,0,0,1,0,.08c0,.08-.07.15-.21.18A.62.62,0,0,1,73,135.22Z"/><path class="cls-1" d="M79,135c0,.13-.11.2-.35.2s-.36-.07-.36-.2v-5.78c0-.13.12-.2.36-.2s.35.07.35.2Z"/><path class="cls-1" d="M88.78,135.22a.48.48,0,0,1-.4-.14L84.65,130v5.09c0,.09-.08.14-.26.14s-.26-.05-.26-.14v-5.79c0-.16.15-.25.44-.25a.5.5,0,0,1,.41.14l3.72,5.09v-5.09c0-.09.09-.14.26-.14s.26.05.26.14V135C89.22,135.14,89.08,135.22,88.78,135.22Z"/><path class="cls-1" d="M103.79,133.4a1.51,1.51,0,0,1-.79,1.33,3.17,3.17,0,0,1-1.73.49,3.44,3.44,0,0,1-1.55-.38,1.64,1.64,0,0,1-.93-1.23.83.83,0,0,1,0-.12c0-.13.12-.2.37-.2s.31.06.34.17a1.67,1.67,0,0,0,1.81,1.36,2.42,2.42,0,0,0,1.18-.36,1.12,1.12,0,0,0,.59-1,.84.84,0,0,0-.58-.76,3.69,3.69,0,0,0-1.09-.27c-.26,0-.54-.07-.83-.13a2.91,2.91,0,0,1-.8-.28,1.41,1.41,0,0,1-.84-1.32,1.3,1.3,0,0,1,.83-1.26,3.79,3.79,0,0,1,1.56-.38,3.14,3.14,0,0,1,1.4.34,1.68,1.68,0,0,1,.87,1.09.49.49,0,0,1,0,.12c0,.12-.13.18-.37.18s-.32-.06-.35-.18a1.42,1.42,0,0,0-1.58-1.15,2.42,2.42,0,0,0-1.11.29,1,1,0,0,0-.56.94c0,.31.21.56.64.75a2.7,2.7,0,0,0,.63.19,3.64,3.64,0,0,0,.55.09c.29,0,.59.08.88.14a2.34,2.34,0,0,1,.79.32A1.39,1.39,0,0,1,103.79,133.4Z"/><path class="cls-1" d="M113.83,133.12c.23,0,.35.07.35.2a.81.81,0,0,1-.05.25,2,2,0,0,1-1,1.23,3.19,3.19,0,0,1-1.57.42,2.65,2.65,0,0,1-2.1-.86,3.24,3.24,0,0,1-.74-2.19,3.37,3.37,0,0,1,.75-2.24,2.68,2.68,0,0,1,2.16-.89,3.06,3.06,0,0,1,1.58.45,1.87,1.87,0,0,1,.93,1.29.49.49,0,0,1,0,.15c0,.14-.12.21-.37.21s-.34-.06-.35-.18a1.61,1.61,0,0,0-1.82-1.52,1.84,1.84,0,0,0-1.66.85,3.41,3.41,0,0,0-.54,1.85A3.49,3.49,0,0,0,110,134a1.74,1.74,0,0,0,1.62.85,2,2,0,0,0,1.23-.42,1.65,1.65,0,0,0,.67-1.1Q113.5,133.12,113.83,133.12Z"/><path class="cls-1" d="M119.84,135c0,.13-.12.2-.36.2s-.36-.07-.36-.2v-5.78c0-.13.12-.2.36-.2s.36.07.36.2Z"/><path class="cls-1" d="M125,129.35c0-.13.12-.2.35-.2h4c.23,0,.35.07.35.2s-.12.2-.35.2h-3.62v2.38h3.09c.24,0,.36.06.36.2s-.12.2-.36.2h-3.09v2.38h3.62c.23,0,.35.07.35.2s-.12.2-.35.2h-4c-.23,0-.35-.06-.35-.2Z"/><path class="cls-1" d="M139.61,135.22a.48.48,0,0,1-.4-.14L135.48,130v5.09c0,.09-.09.14-.26.14s-.26-.05-.26-.14v-5.79c0-.16.15-.25.44-.25a.52.52,0,0,1,.41.14l3.72,5.09v-5.09c0-.09.09-.14.26-.14s.26.05.26.14V135C140.05,135.14,139.9,135.22,139.61,135.22Z"/><path class="cls-1" d="M150.31,133.12c.24,0,.36.07.36.2a.93.93,0,0,1-.06.25,2,2,0,0,1-1,1.23,3.15,3.15,0,0,1-1.56.42,2.65,2.65,0,0,1-2.1-.86,3.2,3.2,0,0,1-.75-2.19,3.37,3.37,0,0,1,.75-2.24,2.68,2.68,0,0,1,2.16-.89,3,3,0,0,1,1.58.45,1.85,1.85,0,0,1,.93,1.29.49.49,0,0,1,0,.15q0,.21-.36.21t-.36-.18a1.61,1.61,0,0,0-1.82-1.52,1.84,1.84,0,0,0-1.66.85,3.41,3.41,0,0,0-.54,1.85,3.49,3.49,0,0,0,.51,1.83,1.76,1.76,0,0,0,1.63.85,2,2,0,0,0,1.23-.42,1.73,1.73,0,0,0,.67-1.1C150,133.18,150.09,133.12,150.31,133.12Z"/><path class="cls-1" d="M155.83,129.35c0-.13.12-.2.35-.2h4c.24,0,.36.07.36.2s-.12.2-.36.2h-3.62v2.38h3.1c.24,0,.36.06.36.2s-.12.2-.36.2h-3.1v2.38h3.62c.24,0,.36.07.36.2s-.12.2-.36.2h-4c-.23,0-.35-.06-.35-.2Z"/></g></svg>