<svg id="Layer_1" data-name="Layer 1" xmlns="http://www.w3.org/2000/svg" viewBox="0 0 186.68 42.01"><defs><style>.cls-1{stroke:#000;stroke-miterlimit:10;stroke-width:0.25px;}</style></defs><g id="Header_-_dark" data-name="Header - dark"><path class="cls-1" d="M10.37,22.33h-9c-.61,0-.91-.17-.91-.52V3c0-.34.3-.51.91-.51h8.2a5.22,5.22,0,0,1,3.74,1.49,4.92,4.92,0,0,1,1.58,3.74,5.16,5.16,0,0,1-2.58,4.51,5,5,0,0,1,3.53,4.91,4.81,4.81,0,0,1-1.63,3.75A5.45,5.45,0,0,1,10.37,22.33ZM9.54,11.88a3,3,0,0,0,2.54-1.37,4.81,4.81,0,0,0,1-2.83,4.81,4.81,0,0,0-1-2.84A3,3,0,0,0,9.54,3.47H2.23v8.41Zm.83,9.42A3.16,3.16,0,0,0,13,20a4.52,4.52,0,0,0,0-5.72,3.15,3.15,0,0,0-2.62-1.33H2.23V21.3Z"/><path class="cls-1" d="M32.46,22.68a8.76,8.76,0,0,1-7-3,10.73,10.73,0,0,1-2.58-7.3,10.79,10.79,0,0,1,2.58-7.32,8.76,8.76,0,0,1,7-3,8.74,8.74,0,0,1,7,3A10.79,10.79,0,0,1,42,12.4a10.73,10.73,0,0,1-2.58,7.3A8.74,8.74,0,0,1,32.46,22.68Zm0-1a6.57,6.57,0,0,0,5.77-2.86,10.92,10.92,0,0,0,2-6.39,10.94,10.94,0,0,0-2-6.41,6.57,6.57,0,0,0-5.77-2.87A6.59,6.59,0,0,0,26.68,6a10.94,10.94,0,0,0-2,6.41,10.92,10.92,0,0,0,2,6.39A6.58,6.58,0,0,0,32.46,21.65Z"/><path class="cls-1" d="M54.35,22.5c-.61,0-.91-.17-.91-.51V3.3H46.92c-.6,0-.89-.17-.89-.51s.29-.52.89-.52H61.76c.59,0,.89.17.89.52s-.3.51-.89.51H55.24V22C55.24,22.33,54.94,22.5,54.35,22.5Z"/><path class="cls-1" d="M84.07,22.68c-.56,0-.9-.13-1-.4l-2.78-6.52h-10l-2.81,6.7c-.06.14-.26.22-.6.22s-.53-.09-.53-.26a.62.62,0,0,1,0-.11L74.63,2.46q.15-.36,1-.36c.59,0,.93.13,1,.39L85,22a.41.41,0,0,1,0,.17C85.08,22.52,84.75,22.68,84.07,22.68Zm-4.24-7.94L75.2,3.88,70.66,14.74Z"/><path class="cls-1" d="M107.37,22.68c-.55,0-.91-.12-1.08-.37l-13-18v18.1c0,.19-.19.29-.57.29s-.57-.1-.57-.29V2.76q0-.66,1.17-.66a1.23,1.23,0,0,1,1.07.38l13,18V2.41c0-.21.19-.31.57-.31s.57.1.57.31V22C108.54,22.46,108.15,22.68,107.37,22.68Z"/><path class="cls-1" d="M116.88,22.66c-.59,0-.89-.17-.89-.51V2.61c0-.34.3-.51.89-.51s.91.17.91.51V22.15C117.79,22.49,117.49,22.66,116.88,22.66Z"/><path class="cls-1" d="M142.11,16.41a1.9,1.9,0,0,1-.06.35A6.54,6.54,0,0,1,139,21.14a9.86,9.86,0,0,1-5.27,1.54q-4.59,0-6.88-3a11.72,11.72,0,0,1-2.3-7.31A11.08,11.08,0,0,1,127,5.06a8.55,8.55,0,0,1,7-3,9.55,9.55,0,0,1,5.15,1.52A6.25,6.25,0,0,1,142,8a2.2,2.2,0,0,1,.05.38c0,.33-.3.5-.92.5s-.83-.16-.88-.47a5.57,5.57,0,0,0-2.19-3.84,6.63,6.63,0,0,0-4.16-1.45A6.4,6.4,0,0,0,128.18,6a11.38,11.38,0,0,0-1.87,6.35,12.24,12.24,0,0,0,1.75,6.36,6,6,0,0,0,5.63,2.95A7,7,0,0,0,138,20.18a5.89,5.89,0,0,0,2.35-3.83c0-.29.34-.44.88-.44S142.11,16.08,142.11,16.41Z"/><path class="cls-1" d="M166.25,22.68c-.57,0-.91-.13-1-.4l-2.78-6.52h-10l-2.81,6.7c-.06.14-.26.22-.6.22s-.53-.09-.53-.26a.62.62,0,0,1,0-.11L156.8,2.46c.1-.24.45-.36,1-.36s.94.13,1,.39L167.2,22a.49.49,0,0,1,.06.17C167.26,22.52,166.92,22.68,166.25,22.68ZM162,14.74,157.37,3.88l-4.54,10.86Z"/><path class="cls-1" d="M185.61,22.33H175.09c-.57,0-.85-.16-.85-.48V3.92c0-.31.28-.47.85-.47s.83.16.83.47V21.37h9.69c.57,0,.85.16.85.48S186.18,22.33,185.61,22.33Z"/><path class="cls-1" d="M46.79,40A1.49,1.49,0,0,1,46,41.28a3.24,3.24,0,0,1-1.73.48,3.43,3.43,0,0,1-1.55-.37,1.61,1.61,0,0,1-.92-1.24.35.35,0,0,1,0-.12c0-.13.12-.19.37-.19s.31.06.34.17a1.68,1.68,0,0,0,1.81,1.36A2.42,2.42,0,0,0,45.48,41a1.14,1.14,0,0,0,.59-1,.83.83,0,0,0-.58-.76A3.16,3.16,0,0,0,44.4,39c-.26,0-.54-.07-.83-.13a3.29,3.29,0,0,1-.8-.28,1.41,1.41,0,0,1-.84-1.32A1.3,1.3,0,0,1,42.76,36a3.77,3.77,0,0,1,1.56-.37,3,3,0,0,1,1.4.34A1.66,1.66,0,0,1,46.59,37a.62.62,0,0,1,0,.11c0,.12-.12.18-.37.18s-.32-.06-.35-.17A1.42,1.42,0,0,0,44.32,36a2.42,2.42,0,0,0-1.11.29,1,1,0,0,0-.56.94c0,.31.21.56.64.75a3.28,3.28,0,0,0,.63.19c.22.05.4.07.55.09s.59.08.88.14a2.28,2.28,0,0,1,.8.32A1.4,1.4,0,0,1,46.79,40Z"/><path class="cls-1" d="M56.35,41.76c-.21,0-.34,0-.41-.14l-2.22-3-1.06,1v2c0,.12-.12.17-.36.17s-.36,0-.36-.17V35.77q0-.18.36-.18t.36.18V39l3.54-3.3a.41.41,0,0,1,.27-.08l.15,0c.11,0,.16.07.16.13a.11.11,0,0,1,0,.07l-2.47,2.3,2.48,3.36a.16.16,0,0,1,0,.08q0,.12-.21.18A.85.85,0,0,1,56.35,41.76Z"/><path class="cls-1" d="M62.34,41.57c0,.13-.12.19-.36.19s-.36-.06-.36-.19V35.79c0-.13.12-.2.36-.2s.36.07.36.2Z"/><path class="cls-1" d="M72.14,41.76a.45.45,0,0,1-.4-.14L68,36.54v5.09c0,.09-.08.13-.26.13s-.26,0-.26-.13V35.84c0-.17.15-.25.44-.25a.5.5,0,0,1,.41.14l3.72,5.09V35.73c0-.09.09-.14.26-.14s.26,0,.26.14v5.8C72.58,41.69,72.44,41.76,72.14,41.76Z"/><path class="cls-1" d="M87.15,40a1.51,1.51,0,0,1-.79,1.33,3.24,3.24,0,0,1-1.73.48,3.43,3.43,0,0,1-1.55-.37,1.64,1.64,0,0,1-.93-1.24.68.68,0,0,1,0-.12c0-.13.12-.19.37-.19s.31.06.34.17a1.68,1.68,0,0,0,1.81,1.36A2.42,2.42,0,0,0,85.84,41a1.14,1.14,0,0,0,.59-1,.83.83,0,0,0-.58-.76A3.16,3.16,0,0,0,84.76,39c-.26,0-.54-.07-.83-.13a3.29,3.29,0,0,1-.8-.28,1.41,1.41,0,0,1-.84-1.32A1.3,1.3,0,0,1,83.12,36a3.77,3.77,0,0,1,1.56-.37,3,3,0,0,1,1.4.34A1.66,1.66,0,0,1,87,37a.62.62,0,0,1,0,.11c0,.12-.12.18-.37.18s-.32-.06-.35-.17A1.42,1.42,0,0,0,84.68,36a2.42,2.42,0,0,0-1.11.29,1,1,0,0,0-.56.94c0,.31.21.56.64.75a3.28,3.28,0,0,0,.63.19c.22.05.4.07.55.09s.59.08.88.14a2.28,2.28,0,0,1,.8.32A1.4,1.4,0,0,1,87.15,40Z"/><path class="cls-1" d="M97.19,39.66c.24,0,.35.07.35.21a.81.81,0,0,1-.05.25,1.91,1.91,0,0,1-1,1.22,3.08,3.08,0,0,1-1.57.42,2.62,2.62,0,0,1-2.09-.85,3.2,3.2,0,0,1-.75-2.19,3.35,3.35,0,0,1,.75-2.24A2.68,2.68,0,0,1,95,35.59a3.14,3.14,0,0,1,1.58.44,1.91,1.91,0,0,1,.93,1.3.49.49,0,0,1,0,.15q0,.21-.36.21t-.36-.18A1.61,1.61,0,0,0,95,36a1.82,1.82,0,0,0-1.66.85,3.38,3.38,0,0,0-.54,1.85,3.51,3.51,0,0,0,.51,1.83,1.76,1.76,0,0,0,1.62.85,2,2,0,0,0,1.23-.43,1.61,1.61,0,0,0,.67-1.1Q96.86,39.66,97.19,39.66Z"/><path class="cls-1" d="M103.2,41.57c0,.13-.12.19-.36.19s-.36-.06-.36-.19V35.79c0-.13.12-.2.36-.2s.36.07.36.2Z"/><path class="cls-1" d="M108.36,35.89c0-.13.12-.19.35-.19h4c.23,0,.35.06.35.19s-.12.21-.35.21h-3.62v2.37h3.09q.36,0,.36.21c0,.13-.12.2-.36.2h-3.09v2.38h3.62c.23,0,.35.07.35.2s-.12.2-.35.2h-4c-.23,0-.35-.07-.35-.2Z"/><path class="cls-1" d="M123,41.76a.45.45,0,0,1-.4-.14l-3.73-5.08v5.09c0,.09-.09.13-.26.13s-.26,0-.26-.13V35.84c0-.17.15-.25.44-.25a.52.52,0,0,1,.41.14l3.72,5.09V35.73c0-.09.09-.14.26-.14s.26,0,.26.14v5.8C123.41,41.69,123.26,41.76,123,41.76Z"/><path class="cls-1" d="M133.67,39.66q.36,0,.36.21a.93.93,0,0,1-.06.25,1.91,1.91,0,0,1-1,1.22,3,3,0,0,1-1.56.42,2.64,2.64,0,0,1-2.1-.85,3.2,3.2,0,0,1-.75-2.19,3.35,3.35,0,0,1,.75-2.24,2.68,2.68,0,0,1,2.16-.89,3.12,3.12,0,0,1,1.58.44,1.88,1.88,0,0,1,.93,1.3.49.49,0,0,1,0,.15q0,.21-.36.21t-.36-.18A1.61,1.61,0,0,0,131.48,36a1.82,1.82,0,0,0-1.66.85,3.38,3.38,0,0,0-.54,1.85,3.51,3.51,0,0,0,.51,1.83,1.78,1.78,0,0,0,1.63.85,2,2,0,0,0,1.23-.43,1.68,1.68,0,0,0,.67-1.1C133.34,39.72,133.45,39.66,133.67,39.66Z"/><path class="cls-1" d="M139.19,35.89c0-.13.12-.19.35-.19h4c.24,0,.36.06.36.19s-.12.21-.36.21H139.9v2.37H143q.36,0,.36.21c0,.13-.12.2-.36.2h-3.1v2.38h3.62c.24,0,.36.07.36.2s-.12.2-.36.2h-4c-.23,0-.35-.07-.35-.2Z"/></g></svg>