<svg id="Layer_1" data-name="Layer 1" xmlns="http://www.w3.org/2000/svg" viewBox="0 0 175.38 43.08"><defs><style>.cls-1{fill:#eeebdd;stroke:#eeebdd;stroke-miterlimit:10;stroke-width:0.25px;}</style></defs><g id="Header_-_dark" data-name="Header - dark"><path class="cls-1" d="M9.78,22.06H1.34c-.57,0-.85-.16-.85-.47V4c0-.32.28-.48.85-.48H9A4.9,4.9,0,0,1,12.49,4.9,4.59,4.59,0,0,1,14,8.39a4.8,4.8,0,0,1-2.41,4.21,4.68,4.68,0,0,1,3.3,4.58,4.53,4.53,0,0,1-1.52,3.51A5.11,5.11,0,0,1,9.78,22.06ZM9,12.32A2.8,2.8,0,0,0,11.37,11a4.56,4.56,0,0,0,.91-2.65,4.54,4.54,0,0,0-.91-2.65A2.79,2.79,0,0,0,9,4.47H2.17v7.85Zm.78,8.79a3,3,0,0,0,2.44-1.25,4.39,4.39,0,0,0,.95-2.68,4.33,4.33,0,0,0-.95-2.66,3,3,0,0,0-2.44-1.25H2.17v7.84Z"/><path class="cls-1" d="M30.38,22.39a8.19,8.19,0,0,1-6.52-2.77,10.08,10.08,0,0,1-2.4-6.83A10.07,10.07,0,0,1,23.86,6a8.18,8.18,0,0,1,6.52-2.79A8.18,8.18,0,0,1,36.91,6a10.07,10.07,0,0,1,2.4,6.82,10.08,10.08,0,0,1-2.4,6.83A8.2,8.2,0,0,1,30.38,22.39Zm0-.95a6.18,6.18,0,0,0,5.4-2.68,10.27,10.27,0,0,0,1.85-6,10.32,10.32,0,0,0-1.85-6,6.17,6.17,0,0,0-5.4-2.67A6.15,6.15,0,0,0,25,6.81a10.32,10.32,0,0,0-1.85,6,10.27,10.27,0,0,0,1.85,6A6.16,6.16,0,0,0,30.38,21.44Z"/><path class="cls-1" d="M50.82,22.23c-.57,0-.85-.16-.85-.48V4.3H43.88c-.55,0-.83-.15-.83-.47s.28-.48.83-.48H57.73q.84,0,.84.48c0,.32-.28.47-.84.47H51.65V21.75C51.65,22.07,51.37,22.23,50.82,22.23Z"/><path class="cls-1" d="M78.56,22.39c-.53,0-.85-.12-1-.37L75,15.94H65.64L63,22.19c-.06.13-.24.2-.56.2s-.5-.08-.5-.24l0-.1L69.74,3.53c.1-.23.42-.35,1-.35s.87.13,1,.37l7.78,18.23a.35.35,0,0,1,.06.16C79.51,22.24,79.19,22.39,78.56,22.39ZM74.6,15,70.28,4.85,66,15Z"/><path class="cls-1" d="M100.31,22.39a1.2,1.2,0,0,1-1-.34L87.18,5.23V22.12c0,.18-.18.27-.53.27s-.54-.09-.54-.27V3.8c0-.41.37-.62,1.1-.62a1.15,1.15,0,0,1,1,.36l12.12,16.8V3.47c0-.19.18-.29.54-.29s.53.1.53.29V21.79C101.4,22.19,101,22.39,100.31,22.39Z"/><path class="cls-1" d="M109.18,22.38c-.55,0-.83-.16-.83-.48V3.66c0-.32.28-.48.83-.48s.85.16.85.48V21.9C110,22.22,109.75,22.38,109.18,22.38Z"/><path class="cls-1" d="M132.73,16.54a2.64,2.64,0,0,1,0,.33A6.14,6.14,0,0,1,129.79,21a9.32,9.32,0,0,1-4.92,1.43,7.54,7.54,0,0,1-6.42-2.83,11,11,0,0,1-2.15-6.82A10.34,10.34,0,0,1,118.58,6a8,8,0,0,1,6.51-2.77,8.93,8.93,0,0,1,4.81,1.43,5.75,5.75,0,0,1,2.75,4.08,1.48,1.48,0,0,1,.06.36c0,.31-.29.46-.87.46s-.77-.14-.82-.43A5.19,5.19,0,0,0,129,5.49a6.19,6.19,0,0,0-3.88-1.35,6,6,0,0,0-5.36,2.68A10.58,10.58,0,0,0,118,12.74a11.55,11.55,0,0,0,1.63,5.94,5.66,5.66,0,0,0,5.26,2.76,6.48,6.48,0,0,0,4-1.38,5.49,5.49,0,0,0,2.19-3.57c0-.28.31-.41.82-.41S132.73,16.23,132.73,16.54Z"/><path class="cls-1" d="M155.26,22.39c-.53,0-.85-.12-1-.37l-2.6-6.08h-9.36l-2.63,6.25c-.05.13-.24.2-.56.2s-.49-.08-.49-.24l0-.1,7.75-18.52c.1-.23.42-.35.95-.35s.87.13,1,.37l7.78,18.23a.35.35,0,0,1,.06.16C156.2,22.24,155.88,22.39,155.26,22.39Zm-4-7.41L147,4.85,142.73,15Z"/><path class="cls-1" d="M174.18,22.06H163.66c-.57,0-.85-.16-.85-.47V3.66c0-.32.28-.48.85-.48s.83.16.83.48V21.11h9.69c.57,0,.85.16.85.48S174.75,22.06,174.18,22.06Z"/><path class="cls-1" d="M40.15,40.57a1.51,1.51,0,0,1-.78,1.34,3.27,3.27,0,0,1-1.73.48A3.5,3.5,0,0,1,36.08,42a1.65,1.65,0,0,1-.92-1.24c0-.07,0-.11,0-.12s.13-.19.37-.19.31.05.34.17A1.68,1.68,0,0,0,37.67,42a2.28,2.28,0,0,0,1.18-.36,1.12,1.12,0,0,0,.59-1,.84.84,0,0,0-.59-.75,3.4,3.4,0,0,0-1.08-.28,6.61,6.61,0,0,1-.84-.13,2.91,2.91,0,0,1-.8-.28,1.38,1.38,0,0,1-.83-1.32,1.29,1.29,0,0,1,.82-1.26,3.77,3.77,0,0,1,1.56-.37,3,3,0,0,1,1.4.34A1.62,1.62,0,0,1,40,37.65a.45.45,0,0,1,0,.11c0,.12-.13.18-.38.18s-.31-.06-.34-.18a1.42,1.42,0,0,0-1.58-1.14,2.47,2.47,0,0,0-1.12.28,1,1,0,0,0-.56,1c0,.3.22.55.65.74a3.3,3.3,0,0,0,.63.2l.55.09a5.54,5.54,0,0,1,.88.14,2.42,2.42,0,0,1,.79.31A1.39,1.39,0,0,1,40.15,40.57Z"/><path class="cls-1" d="M49.71,42.39a.47.47,0,0,1-.4-.14l-2.22-3-1.07,1v2q0,.18-.36.18c-.23,0-.35-.06-.35-.18V36.4c0-.12.12-.18.35-.18s.36.06.36.18v3.2l3.55-3.3a.34.34,0,0,1,.26-.08.44.44,0,0,1,.15,0c.11,0,.17.07.17.13s0,0,0,.07l-2.46,2.3,2.48,3.36a.13.13,0,0,1,0,.08c0,.08-.07.14-.22.18A.85.85,0,0,1,49.71,42.39Z"/><path class="cls-1" d="M55.7,42.19c0,.14-.12.2-.36.2s-.36-.06-.36-.2V36.41c0-.13.12-.19.36-.19s.36.06.36.19Z"/><path class="cls-1" d="M65.5,42.39a.49.49,0,0,1-.4-.14l-3.72-5.08v5.09c0,.09-.09.13-.26.13s-.26,0-.26-.13v-5.8c0-.16.15-.24.44-.24a.45.45,0,0,1,.4.14l3.73,5.08V36.36c0-.1.09-.14.26-.14s.26,0,.26.14v5.79Q66,42.39,65.5,42.39Z"/><path class="cls-1" d="M80.51,40.57a1.51,1.51,0,0,1-.78,1.34,3.27,3.27,0,0,1-1.73.48A3.5,3.5,0,0,1,76.44,42a1.63,1.63,0,0,1-.92-1.24c0-.07,0-.11,0-.12s.12-.19.37-.19.31.05.34.17A1.68,1.68,0,0,0,78,42a2.28,2.28,0,0,0,1.18-.36,1.12,1.12,0,0,0,.59-1,.84.84,0,0,0-.59-.75,3.4,3.4,0,0,0-1.08-.28,6.61,6.61,0,0,1-.84-.13,2.91,2.91,0,0,1-.8-.28,1.38,1.38,0,0,1-.83-1.32,1.29,1.29,0,0,1,.82-1.26A3.77,3.77,0,0,1,78,36.22a3,3,0,0,1,1.4.34,1.62,1.62,0,0,1,.88,1.09.31.31,0,0,1,0,.11c0,.12-.12.18-.37.18s-.31-.06-.34-.18a1.42,1.42,0,0,0-1.58-1.14,2.47,2.47,0,0,0-1.12.28,1,1,0,0,0-.56,1c0,.3.22.55.65.74a3.3,3.3,0,0,0,.63.2l.55.09a5.54,5.54,0,0,1,.88.14,2.42,2.42,0,0,1,.79.31A1.39,1.39,0,0,1,80.51,40.57Z"/><path class="cls-1" d="M90.55,40.29q.36,0,.36.21a1.7,1.7,0,0,1,0,.25,2,2,0,0,1-1,1.22,3.15,3.15,0,0,1-1.56.42,2.62,2.62,0,0,1-2.1-.86,3.19,3.19,0,0,1-.75-2.18,3.35,3.35,0,0,1,.75-2.24,2.65,2.65,0,0,1,2.16-.89,3,3,0,0,1,1.58.44A1.86,1.86,0,0,1,90.87,38a.64.64,0,0,1,0,.15c0,.15-.12.22-.36.22s-.34-.06-.36-.19a1.61,1.61,0,0,0-1.82-1.51,1.83,1.83,0,0,0-1.66.85,3.36,3.36,0,0,0-.54,1.85,3.45,3.45,0,0,0,.51,1.82A1.77,1.77,0,0,0,88.3,42a2,2,0,0,0,1.23-.42,1.71,1.71,0,0,0,.67-1.1C90.22,40.35,90.34,40.29,90.55,40.29Z"/><path class="cls-1" d="M96.56,42.19c0,.14-.11.2-.35.2s-.36-.06-.36-.2V36.41c0-.13.12-.19.36-.19s.35.06.35.19Z"/><path class="cls-1" d="M101.72,36.52c0-.13.12-.2.36-.2h4c.24,0,.36.07.36.2s-.12.2-.36.2h-3.62V39.1h3.1c.24,0,.36.07.36.2s-.12.2-.36.2h-3.1v2.39h3.62c.24,0,.36.06.36.2s-.12.2-.36.2h-4c-.24,0-.36-.07-.36-.2Z"/><path class="cls-1" d="M116.33,42.39a.48.48,0,0,1-.4-.14l-3.73-5.08v5.09c0,.09-.08.13-.25.13s-.26,0-.26-.13v-5.8c0-.16.14-.24.44-.24a.46.46,0,0,1,.4.14l3.73,5.08V36.36c0-.1.08-.14.26-.14s.26,0,.26.14v5.79Q116.78,42.39,116.33,42.39Z"/><path class="cls-1" d="M127,40.29c.23,0,.35.07.35.21a1.7,1.7,0,0,1,0,.25,2,2,0,0,1-1,1.22,3.22,3.22,0,0,1-1.57.42,2.62,2.62,0,0,1-2.1-.86,3.19,3.19,0,0,1-.75-2.18,3.36,3.36,0,0,1,.76-2.24,2.64,2.64,0,0,1,2.15-.89,3.08,3.08,0,0,1,1.59.44,1.92,1.92,0,0,1,.93,1.29c0,.07,0,.12,0,.15s-.12.22-.36.22-.34-.06-.35-.19a1.61,1.61,0,0,0-1.83-1.51,1.81,1.81,0,0,0-1.65.85,3.36,3.36,0,0,0-.54,1.85,3.45,3.45,0,0,0,.51,1.82,1.74,1.74,0,0,0,1.62.85,2,2,0,0,0,1.23-.42,1.67,1.67,0,0,0,.67-1.1Q126.71,40.29,127,40.29Z"/><path class="cls-1" d="M132.55,36.52c0-.13.12-.2.36-.2h4c.24,0,.35.07.35.2s-.11.2-.35.2h-3.62V39.1h3.1c.24,0,.36.07.36.2s-.12.2-.36.2h-3.1v2.39h3.62c.24,0,.35.06.35.2s-.11.2-.35.2h-4c-.24,0-.36-.07-.36-.2Z"/></g></svg>