<svg id="Layer_1" data-name="Layer 1" xmlns="http://www.w3.org/2000/svg" viewBox="0 0 218.21 217.72"><defs><style>.cls-1{fill:#eeebdd;stroke:#eeebdd;stroke-miterlimit:10;stroke-width:0.25px;}</style></defs><g id="Header_-_dark" data-name="Header - dark"><path class="cls-1" d="M36.86,109.93a7.45,7.45,0,0,1-.66,3.16,6.44,6.44,0,0,1-1.78,2.33,8.08,8.08,0,0,1-2.53,1.39,8.87,8.87,0,0,1-2.95.5H24.58V93.91h3a7.45,7.45,0,0,1,2,.26,5.53,5.53,0,0,1,1.74.8,3.84,3.84,0,0,1,1.24,1.48,4.88,4.88,0,0,1,.45,2.14,5,5,0,0,1-.46,2.18,4.5,4.5,0,0,1-1.22,1.61,5.59,5.59,0,0,1-1.4.82,11.65,11.65,0,0,1,1.92.33,8.49,8.49,0,0,1,2.51,1.17,5.41,5.41,0,0,1,1.8,2.14A7.05,7.05,0,0,1,36.86,109.93ZM31.92,98.59a4,4,0,0,0-4.33-4.31H25.92v8.87H29A3.63,3.63,0,0,0,30.75,102,5,5,0,0,0,31.92,98.59Zm-3,18.23a5.79,5.79,0,0,0,4.57-1.91,7.29,7.29,0,0,0,1.69-5,6.21,6.21,0,0,0-1.66-4.59,6.28,6.28,0,0,0-4.6-1.65l-3,0v13.11H26c.36,0,1.12,0,2,0h.92Z"/><path class="cls-1" d="M43,100.21a12.27,12.27,0,0,1,16.22-5.82A12,12,0,0,1,65,110.45a12.3,12.3,0,0,1-16.22,5.81A12,12,0,0,1,43,100.21Zm15,16.15a9.17,9.17,0,0,0,5.58-5.65A13.07,13.07,0,0,0,58,95.11,9.19,9.19,0,0,0,44.48,100a13.06,13.06,0,0,0,5.61,15.59A9.15,9.15,0,0,0,58,116.36Z"/><path class="cls-1" d="M83.34,93.89v.36H77.5v23H75.74v-23H69.89v-.36Z"/><path class="cls-1" d="M100.48,117.41H98.7l-1.42-4.92,0-.12-.91-3.16H89.47l-.89,3.33L88,114.92l0,.08,0,0-.63,2.37h-.49l1.76-6.5,4-14.82-.63-2.2h1.66l0,.3,5.31,18,.93,3.14a.42.42,0,0,0,0,.1v0Zm-4.29-8.72-2.43-8.55v0l-1-3.28-3.18,11.88Z"/><path class="cls-1" d="M123,93.89V117.3h-1.76v-1.42L108.92,95V117.3h-1.75V93.89h1.54l.6,1v0L111,97.85l0,.07,10.12,17.18V93.89Z"/><path class="cls-1" d="M130.12,117.3V93.89h1.75V117.3Z"/><path class="cls-1" d="M158.61,111l2-.24a12.17,12.17,0,0,1-4.46,5,11.93,11.93,0,0,1-6.58,1.91,11.51,11.51,0,0,1-8.46-3.52,12.12,12.12,0,0,1,0-17.06,11.45,11.45,0,0,1,8.46-3.54,11.93,11.93,0,0,1,6.58,1.91,12.17,12.17,0,0,1,4.46,5l-2-.21a11.11,11.11,0,0,0-3.71-4.61,9,9,0,0,0-5.33-1.73,8.81,8.81,0,0,0-7,3.43,13.24,13.24,0,0,0,0,16.54,8.79,8.79,0,0,0,7,3.44,9,9,0,0,0,5.33-1.73A11.11,11.11,0,0,0,158.61,111Z"/><path class="cls-1" d="M179.13,117.41h-1.77l-1.42-4.92,0-.12-.91-3.16h-6.86l-.89,3.33-.64,2.38,0,.08v0l-.64,2.37h-.49l1.76-6.5,4-14.82-.63-2.2h1.65l0,.3,5.32,18,.92,3.14a.42.42,0,0,1,0,.1l0,0Zm-4.29-8.72-2.42-8.55,0,0-1-3.28-3.17,11.88Z"/><path class="cls-1" d="M193.62,116.94v.36h-7.73V93.89h1.79v23Z"/><path class="cls-1" d="M63.43,133.4a1.49,1.49,0,0,1-.79,1.33,3.17,3.17,0,0,1-1.73.49,3.44,3.44,0,0,1-1.55-.38,1.64,1.64,0,0,1-.93-1.23.83.83,0,0,1,0-.12c0-.13.12-.2.37-.2s.31.06.34.17a1.67,1.67,0,0,0,1.81,1.36,2.42,2.42,0,0,0,1.18-.36,1.12,1.12,0,0,0,.59-1,.84.84,0,0,0-.58-.76,3.69,3.69,0,0,0-1.09-.27c-.26,0-.54-.07-.83-.13a2.91,2.91,0,0,1-.8-.28,1.41,1.41,0,0,1-.84-1.32,1.3,1.3,0,0,1,.83-1.26A3.79,3.79,0,0,1,61,129a3.14,3.14,0,0,1,1.4.34,1.68,1.68,0,0,1,.87,1.09.49.49,0,0,1,0,.12c0,.12-.12.18-.37.18s-.32-.06-.35-.18A1.42,1.42,0,0,0,61,129.44a2.42,2.42,0,0,0-1.11.29,1,1,0,0,0-.56.94c0,.31.21.56.64.75a2.7,2.7,0,0,0,.63.19,3.64,3.64,0,0,0,.55.09c.29,0,.59.08.88.14a2.48,2.48,0,0,1,.8.32A1.4,1.4,0,0,1,63.43,133.4Z"/><path class="cls-1" d="M73,135.22a.46.46,0,0,1-.41-.15l-2.22-3-1.06,1v2q0,.18-.36.18t-.36-.18v-5.82q0-.18.36-.18t.36.18v3.2l3.54-3.3a.41.41,0,0,1,.27-.08l.15,0c.11,0,.16.07.16.14a.13.13,0,0,1,0,.07l-2.47,2.29,2.48,3.36a.16.16,0,0,1,0,.08q0,.12-.21.18A.62.62,0,0,1,73,135.22Z"/><path class="cls-1" d="M79,135c0,.13-.11.2-.35.2s-.36-.07-.36-.2v-5.78c0-.13.12-.2.36-.2s.35.07.35.2Z"/><path class="cls-1" d="M88.78,135.22a.48.48,0,0,1-.4-.14L84.65,130v5.09c0,.09-.08.14-.26.14s-.26-.05-.26-.14v-5.79c0-.16.15-.25.44-.25a.5.5,0,0,1,.41.14l3.72,5.09v-5.09c0-.09.09-.14.26-.14s.26.05.26.14V135C89.22,135.14,89.08,135.22,88.78,135.22Z"/><path class="cls-1" d="M103.79,133.4a1.51,1.51,0,0,1-.79,1.33,3.17,3.17,0,0,1-1.73.49,3.44,3.44,0,0,1-1.55-.38,1.64,1.64,0,0,1-.93-1.23.83.83,0,0,1,0-.12c0-.13.12-.2.37-.2s.31.06.34.17a1.67,1.67,0,0,0,1.81,1.36,2.42,2.42,0,0,0,1.18-.36,1.12,1.12,0,0,0,.59-1,.84.84,0,0,0-.58-.76,3.69,3.69,0,0,0-1.09-.27c-.26,0-.54-.07-.83-.13a2.91,2.91,0,0,1-.8-.28,1.41,1.41,0,0,1-.84-1.32,1.3,1.3,0,0,1,.83-1.26,3.79,3.79,0,0,1,1.56-.38,3.14,3.14,0,0,1,1.4.34,1.68,1.68,0,0,1,.87,1.09.49.49,0,0,1,0,.12c0,.12-.13.18-.37.18s-.32-.06-.35-.18a1.42,1.42,0,0,0-1.58-1.15,2.42,2.42,0,0,0-1.11.29,1,1,0,0,0-.56.94c0,.31.21.56.64.75a2.7,2.7,0,0,0,.63.19,3.64,3.64,0,0,0,.55.09c.29,0,.59.08.88.14a2.34,2.34,0,0,1,.79.32A1.39,1.39,0,0,1,103.79,133.4Z"/><path class="cls-1" d="M113.83,133.12c.23,0,.35.07.35.2a.81.81,0,0,1-.05.25,2,2,0,0,1-1,1.23,3.19,3.19,0,0,1-1.57.42,2.65,2.65,0,0,1-2.1-.86,3.24,3.24,0,0,1-.74-2.19,3.37,3.37,0,0,1,.75-2.24,2.68,2.68,0,0,1,2.16-.89,3.06,3.06,0,0,1,1.58.45,1.87,1.87,0,0,1,.93,1.29.49.49,0,0,1,0,.15c0,.14-.12.21-.37.21s-.34-.06-.35-.18a1.61,1.61,0,0,0-1.82-1.52,1.84,1.84,0,0,0-1.66.85,3.41,3.41,0,0,0-.54,1.85A3.51,3.51,0,0,0,110,134a1.74,1.74,0,0,0,1.62.85,2,2,0,0,0,1.23-.42,1.63,1.63,0,0,0,.67-1.1Q113.5,133.12,113.83,133.12Z"/><path class="cls-1" d="M119.84,135c0,.13-.12.2-.36.2s-.36-.07-.36-.2v-5.78c0-.13.12-.2.36-.2s.36.07.36.2Z"/><path class="cls-1" d="M125,129.35c0-.14.12-.2.35-.2h4c.23,0,.35.06.35.2s-.12.2-.35.2h-3.62v2.38h3.09c.24,0,.36.06.36.2s-.12.2-.36.2h-3.09v2.38h3.62c.23,0,.35.07.35.21s-.12.19-.35.19h-4c-.23,0-.35-.06-.35-.19Z"/><path class="cls-1" d="M139.61,135.22a.48.48,0,0,1-.4-.14L135.48,130v5.09c0,.09-.09.14-.26.14s-.26-.05-.26-.14v-5.79c0-.16.15-.25.44-.25a.52.52,0,0,1,.41.14l3.72,5.09v-5.09c0-.09.09-.14.26-.14s.26.05.26.14V135C140.05,135.14,139.9,135.22,139.61,135.22Z"/><path class="cls-1" d="M150.31,133.12c.24,0,.36.07.36.2a.93.93,0,0,1-.06.25,2,2,0,0,1-1,1.23,3.15,3.15,0,0,1-1.56.42,2.65,2.65,0,0,1-2.1-.86,3.2,3.2,0,0,1-.75-2.19,3.37,3.37,0,0,1,.75-2.24,2.68,2.68,0,0,1,2.16-.89,3,3,0,0,1,1.58.45,1.85,1.85,0,0,1,.93,1.29.49.49,0,0,1,0,.15q0,.21-.36.21t-.36-.18a1.61,1.61,0,0,0-1.82-1.52,1.84,1.84,0,0,0-1.66.85,3.41,3.41,0,0,0-.54,1.85,3.51,3.51,0,0,0,.51,1.83,1.76,1.76,0,0,0,1.63.85,2,2,0,0,0,1.23-.42,1.71,1.71,0,0,0,.67-1.1C150,133.18,150.09,133.12,150.31,133.12Z"/><path class="cls-1" d="M155.83,129.35c0-.14.12-.2.35-.2h4c.24,0,.36.06.36.2s-.12.2-.36.2h-3.62v2.38h3.1c.24,0,.36.06.36.2s-.12.2-.36.2h-3.1v2.38h3.62q.36,0,.36.21c0,.13-.12.19-.36.19h-4c-.23,0-.35-.06-.35-.19Z"/></g></svg>