<svg id="Layer_1" data-name="Layer 1" xmlns="http://www.w3.org/2000/svg" viewBox="0 0 169.04 42.71"><defs><style>.cls-1{stroke:#000;stroke-miterlimit:10;stroke-width:0.25px;}</style></defs><g id="Header_-_dark" data-name="Header - dark"><path class="cls-1" d="M12.28,17.18a7.45,7.45,0,0,1-.66,3.16,6.52,6.52,0,0,1-1.78,2.33,8.4,8.4,0,0,1-2.53,1.39,8.87,8.87,0,0,1-2.95.49H0V1.15H3a7.86,7.86,0,0,1,2,.26,5.78,5.78,0,0,1,1.74.81A3.76,3.76,0,0,1,8,3.7a4.8,4.8,0,0,1,.45,2.13A5,5,0,0,1,8,8,4.33,4.33,0,0,1,6.8,9.62a5.63,5.63,0,0,1-1.4.83,9.87,9.87,0,0,1,1.92.33,8.22,8.22,0,0,1,2.51,1.16,5.56,5.56,0,0,1,1.8,2.14A7.13,7.13,0,0,1,12.28,17.18ZM7.33,5.83A4.29,4.29,0,0,0,6.19,2.66,4.36,4.36,0,0,0,3,1.52H1.34V10.4H4.4A3.71,3.71,0,0,0,6.17,9.27,5,5,0,0,0,7.33,5.83Zm-3,18.23a5.79,5.79,0,0,0,4.57-1.91,7.27,7.27,0,0,0,1.69-5A6.21,6.21,0,0,0,9,12.59a6.24,6.24,0,0,0-4.6-1.65l-3,0v13.1h3Z"/><path class="cls-1" d="M18.43,7.45a11.76,11.76,0,0,1,6.92-6.23,11.75,11.75,0,0,1,9.3.42,11.53,11.53,0,0,1,6.23,6.81,11.57,11.57,0,0,1-.47,9.24,11.83,11.83,0,0,1-6.92,6.22,11.79,11.79,0,0,1-9.3-.4A11.56,11.56,0,0,1,18,16.68,11.59,11.59,0,0,1,18.43,7.45ZM33.37,23.6A9.14,9.14,0,0,0,39,18a12.22,12.22,0,0,0,0-8.81,12.18,12.18,0,0,0-5.58-6.79,9.17,9.17,0,0,0-7.9-.79A9,9,0,0,0,19.9,7.2a12.27,12.27,0,0,0,0,8.77,12.25,12.25,0,0,0,5.59,6.81A9.09,9.09,0,0,0,33.37,23.6Z"/><path class="cls-1" d="M58.76,1.13v.36H52.92V24.55H51.16V1.49H45.31V1.13Z"/><path class="cls-1" d="M75.9,24.66H74.12L72.7,19.74l0-.12-.91-3.16H64.89L64,19.79l-.63,2.37,0,.08,0,.05-.63,2.37h-.49L64,18.15,68,3.33l-.63-2.2H69l0,.31,5.31,18,.93,3.14,0,.1,0,.06Zm-4.29-8.73L69.18,7.38v0l-1-3.28L65,15.93Z"/><path class="cls-1" d="M98.37,1.13V24.55H96.61V23.13L84.34,2.22V24.55H82.59V1.13h1.54l.6,1v0L86.45,5.1l0,.06L96.61,22.35V1.13Z"/><path class="cls-1" d="M105.53,24.55V1.13h1.76V24.55Z"/><path class="cls-1" d="M134,18.2l2-.24a12.14,12.14,0,0,1-4.46,5,11.92,11.92,0,0,1-6.58,1.9,11.47,11.47,0,0,1-8.46-3.52A11.63,11.63,0,0,1,113,12.82a11.66,11.66,0,0,1,3.51-8.52A11.48,11.48,0,0,1,125,.77a11.92,11.92,0,0,1,6.58,1.9,12.14,12.14,0,0,1,4.46,5l-2-.21a11.12,11.12,0,0,0-3.71-4.61A9,9,0,0,0,125,1.13a8.79,8.79,0,0,0-7,3.43,12.4,12.4,0,0,0-2.9,8.27,12.46,12.46,0,0,0,2.9,8.28,8.81,8.81,0,0,0,7,3.44,9,9,0,0,0,5.33-1.74A11.06,11.06,0,0,0,134,18.2Z"/><path class="cls-1" d="M154.55,24.66h-1.77l-1.42-4.92,0-.12-.91-3.16h-6.87l-.88,3.33L142,22.16l0,.08v.05l-.64,2.37h-.49l1.76-6.51,4-14.82L146,1.13h1.65l0,.31,5.32,18,.92,3.14,0,.1,0,.06Zm-4.29-8.73-2.42-8.55,0,0-1-3.28-3.17,11.88Z"/><path class="cls-1" d="M169,24.19v.36h-7.73V1.13h1.79V24.19Z"/><path class="cls-1" d="M38.85,40.64A1.51,1.51,0,0,1,38.06,42a3.24,3.24,0,0,1-1.73.48,3.43,3.43,0,0,1-1.55-.37,1.64,1.64,0,0,1-.93-1.24.68.68,0,0,1,0-.12c0-.13.12-.19.37-.19s.31.06.34.17a1.67,1.67,0,0,0,1.81,1.35,2.3,2.3,0,0,0,1.18-.35,1.14,1.14,0,0,0,.59-1,.83.83,0,0,0-.58-.75,3.16,3.16,0,0,0-1.09-.27c-.26,0-.54-.07-.83-.13a3.29,3.29,0,0,1-.8-.28A1.41,1.41,0,0,1,34,37.92a1.3,1.3,0,0,1,.83-1.26,3.77,3.77,0,0,1,1.56-.37,3,3,0,0,1,1.4.34,1.66,1.66,0,0,1,.87,1.09.62.62,0,0,1,0,.11c0,.12-.13.18-.37.18S38,38,38,37.84a1.42,1.42,0,0,0-1.58-1.15,2.42,2.42,0,0,0-1.11.29,1,1,0,0,0-.56.94c0,.31.21.56.64.75a3.28,3.28,0,0,0,.63.19l.55.09a6.71,6.71,0,0,1,.88.14,2.15,2.15,0,0,1,.79.32A1.38,1.38,0,0,1,38.85,40.64Z"/><path class="cls-1" d="M48.41,42.46c-.21,0-.34,0-.41-.14l-2.22-3-1.06,1v2q0,.18-.36.18T44,42.28V36.47q0-.18.36-.18t.36.18v3.2l3.54-3.3a.41.41,0,0,1,.27-.08l.15,0c.11,0,.16.07.16.13a.09.09,0,0,1,0,.07l-2.46,2.3,2.48,3.36a.16.16,0,0,1,0,.08q0,.12-.21.18A.91.91,0,0,1,48.41,42.46Z"/><path class="cls-1" d="M54.39,42.27c0,.13-.11.19-.35.19s-.36-.06-.36-.19V36.49c0-.13.12-.2.36-.2s.35.07.35.2Z"/><path class="cls-1" d="M64.2,42.46a.45.45,0,0,1-.4-.14l-3.73-5.08v5.09c0,.09-.08.13-.26.13s-.26,0-.26-.13V36.54c0-.17.15-.25.44-.25a.5.5,0,0,1,.41.14l3.72,5.08V36.43c0-.09.09-.14.26-.14s.26.05.26.14v5.8C64.64,42.38,64.49,42.46,64.2,42.46Z"/><path class="cls-1" d="M79.21,40.64A1.51,1.51,0,0,1,78.42,42a3.24,3.24,0,0,1-1.73.48,3.5,3.5,0,0,1-1.56-.37,1.65,1.65,0,0,1-.92-1.24.68.68,0,0,1,0-.12c0-.13.12-.19.37-.19s.31.06.34.17a1.67,1.67,0,0,0,1.81,1.35,2.3,2.3,0,0,0,1.18-.35,1.14,1.14,0,0,0,.59-1,.84.84,0,0,0-.58-.75,3.16,3.16,0,0,0-1.09-.27c-.26,0-.54-.07-.83-.13a3.52,3.52,0,0,1-.81-.28,1.42,1.42,0,0,1-.83-1.33,1.3,1.3,0,0,1,.83-1.26,3.77,3.77,0,0,1,1.56-.37,3,3,0,0,1,1.4.34A1.66,1.66,0,0,1,79,37.72a.62.62,0,0,1,0,.11c0,.12-.13.18-.37.18s-.32-.06-.35-.17a1.42,1.42,0,0,0-1.58-1.15,2.42,2.42,0,0,0-1.11.29,1,1,0,0,0-.56.94c0,.31.21.56.64.75a3.28,3.28,0,0,0,.63.19l.55.09a7,7,0,0,1,.88.14,2.15,2.15,0,0,1,.79.32A1.38,1.38,0,0,1,79.21,40.64Z"/><path class="cls-1" d="M89.25,40.36c.23,0,.35.07.35.21a.87.87,0,0,1,0,.25,1.94,1.94,0,0,1-1,1.22,3.22,3.22,0,0,1-1.57.42,2.64,2.64,0,0,1-2.1-.85,3.24,3.24,0,0,1-.74-2.19,3.35,3.35,0,0,1,.75-2.24,2.67,2.67,0,0,1,2.15-.89,3.15,3.15,0,0,1,1.59.44,1.91,1.91,0,0,1,.93,1.3.42.42,0,0,1,0,.14c0,.15-.12.22-.36.22s-.34-.06-.35-.18a1.62,1.62,0,0,0-1.83-1.52,1.81,1.81,0,0,0-1.65.85,3.38,3.38,0,0,0-.54,1.85,3.51,3.51,0,0,0,.51,1.83,1.75,1.75,0,0,0,1.62.84,2,2,0,0,0,1.23-.42,1.67,1.67,0,0,0,.67-1.1Q88.92,40.36,89.25,40.36Z"/><path class="cls-1" d="M95.26,42.27c0,.13-.12.19-.36.19s-.36-.06-.36-.19V36.49c0-.13.12-.2.36-.2s.36.07.36.2Z"/><path class="cls-1" d="M100.42,36.59c0-.13.12-.19.35-.19h4c.23,0,.35.06.35.19s-.12.2-.35.2h-3.63v2.38h3.1c.24,0,.36.07.36.2s-.12.21-.36.21h-3.1V42h3.63c.23,0,.35.07.35.2s-.12.2-.35.2h-4c-.23,0-.35-.07-.35-.2Z"/><path class="cls-1" d="M115,42.46a.45.45,0,0,1-.4-.14l-3.73-5.08v5.09c0,.09-.09.13-.26.13s-.26,0-.26-.13V36.54c0-.17.15-.25.44-.25a.48.48,0,0,1,.4.14L115,41.51V36.43c0-.09.09-.14.26-.14s.26.05.26.14v5.8C115.47,42.38,115.32,42.46,115,42.46Z"/><path class="cls-1" d="M125.73,40.36q.36,0,.36.21a1,1,0,0,1-.06.25A1.94,1.94,0,0,1,125,42a3.15,3.15,0,0,1-1.56.42,2.64,2.64,0,0,1-2.1-.85,3.2,3.2,0,0,1-.75-2.19,3.35,3.35,0,0,1,.75-2.24,2.68,2.68,0,0,1,2.16-.89,3.12,3.12,0,0,1,1.58.44,1.91,1.91,0,0,1,.93,1.3.5.5,0,0,1,0,.14c0,.15-.12.22-.36.22s-.34-.06-.36-.18a1.61,1.61,0,0,0-1.82-1.52,1.82,1.82,0,0,0-1.66.85,3.38,3.38,0,0,0-.54,1.85,3.51,3.51,0,0,0,.51,1.83,1.77,1.77,0,0,0,1.63.84,2,2,0,0,0,1.22-.42,1.63,1.63,0,0,0,.67-1.1C125.4,40.42,125.51,40.36,125.73,40.36Z"/><path class="cls-1" d="M131.25,36.59c0-.13.12-.19.35-.19h4c.24,0,.36.06.36.19s-.12.2-.36.2H132v2.38h3.1c.24,0,.36.07.36.2s-.12.21-.36.21H132V42h3.62c.24,0,.36.07.36.2s-.12.2-.36.2h-4c-.23,0-.35-.07-.35-.2Z"/></g></svg>