<svg id="Layer_1" data-name="Layer 1" xmlns="http://www.w3.org/2000/svg" viewBox="0 0 218.21 217.72"><defs><style>.cls-1{stroke:#000;stroke-miterlimit:10;stroke-width:0.25px;}</style></defs><g id="Header_-_dark" data-name="Header - dark"><path class="cls-1" d="M32.05,115.11H23.61q-.84,0-.84-.48V97q0-.48.84-.48h7.66a4.93,4.93,0,0,1,3.49,1.39,4.59,4.59,0,0,1,1.47,3.49,4.81,4.81,0,0,1-2.4,4.21,4.68,4.68,0,0,1,3.29,4.58,4.51,4.51,0,0,1-1.51,3.51A5.14,5.14,0,0,1,32.05,115.11Zm-.78-9.75a2.78,2.78,0,0,0,2.37-1.28,4.31,4.31,0,0,0,0-5.3,2.77,2.77,0,0,0-2.37-1.27H24.45v7.85Zm.78,8.79a2.94,2.94,0,0,0,2.44-1.25,4.39,4.39,0,0,0,.95-2.68,4.33,4.33,0,0,0-.95-2.66,2.94,2.94,0,0,0-2.44-1.25h-7.6v7.84Z"/><path class="cls-1" d="M52.66,115.43a8.18,8.18,0,0,1-6.52-2.77,10.87,10.87,0,0,1,0-13.65,8.16,8.16,0,0,1,6.52-2.79A8.16,8.16,0,0,1,59.18,99a10.87,10.87,0,0,1,0,13.65A8.18,8.18,0,0,1,52.66,115.43Zm0-1a6.13,6.13,0,0,0,5.39-2.68,10.53,10.53,0,0,0,0-12,6.14,6.14,0,0,0-5.39-2.67,6.14,6.14,0,0,0-5.39,2.67,10.53,10.53,0,0,0,0,12A6.13,6.13,0,0,0,52.66,114.48Z"/><path class="cls-1" d="M73.09,115.27c-.56,0-.85-.16-.85-.48V97.35H66.16q-.84,0-.84-.48t.84-.48H80c.55,0,.83.16.83.48s-.28.48-.83.48H73.92v17.44C73.92,115.11,73.65,115.27,73.09,115.27Z"/><path class="cls-1" d="M100.84,115.43c-.53,0-.85-.12-1-.37L97.28,109H87.92l-2.63,6.25c-.05.13-.24.2-.56.2s-.49-.08-.49-.24l0-.1L92,96.57c.1-.23.42-.35,1-.35s.87.13,1,.37l7.78,18.23a.54.54,0,0,1,0,.16C101.78,115.28,101.47,115.43,100.84,115.43Zm-4-7.41L92.55,97.89,88.31,108Z"/><path class="cls-1" d="M122.58,115.43a1.18,1.18,0,0,1-1-.34L109.46,98.28v16.88q0,.27-.54.27c-.35,0-.53-.09-.53-.27V96.84c0-.41.36-.62,1.09-.62a1.14,1.14,0,0,1,1,.36l12.13,16.8V96.51c0-.19.18-.29.53-.29s.53.1.53.29v18.32C123.67,115.23,123.31,115.43,122.58,115.43Z"/><path class="cls-1" d="M131.46,115.42c-.56,0-.83-.16-.83-.48V96.7c0-.32.27-.48.83-.48s.85.16.85.48v18.24C132.31,115.26,132,115.42,131.46,115.42Z"/><path class="cls-1" d="M155,109.58a1.65,1.65,0,0,1-.06.33,6.08,6.08,0,0,1-2.89,4.09,9.26,9.26,0,0,1-4.91,1.43,7.55,7.55,0,0,1-6.43-2.83,11,11,0,0,1-2.15-6.82A10.35,10.35,0,0,1,140.86,99a8,8,0,0,1,6.51-2.77,9,9,0,0,1,4.81,1.43,5.77,5.77,0,0,1,2.75,4.08,2,2,0,0,1,0,.36c0,.31-.29.46-.86.46s-.78-.14-.82-.43a5.21,5.21,0,0,0-2.05-3.59,6.21,6.21,0,0,0-3.88-1.35A5.94,5.94,0,0,0,142,99.86a10.58,10.58,0,0,0-1.75,5.92,11.45,11.45,0,0,0,1.63,5.94,5.65,5.65,0,0,0,5.26,2.76,6.47,6.47,0,0,0,4-1.38,5.49,5.49,0,0,0,2.19-3.57c0-.28.32-.41.82-.41S155,109.27,155,109.58Z"/><path class="cls-1" d="M177.53,115.43c-.53,0-.85-.12-1-.37L174,109h-9.37L162,115.23c-.06.13-.25.2-.57.2s-.49-.08-.49-.24l0-.1,7.75-18.52c.1-.23.42-.35,1-.35s.87.13,1,.37l7.78,18.23a.34.34,0,0,1,.05.16C178.47,115.28,178.16,115.43,177.53,115.43Zm-4-7.41-4.32-10.13L165,108Z"/><path class="cls-1" d="M196.46,115.11H185.93c-.56,0-.85-.16-.85-.48V96.7c0-.32.29-.48.85-.48s.83.16.83.48v17.45h9.7c.56,0,.85.16.85.48S197,115.11,196.46,115.11Z"/><path class="cls-1" d="M63.43,133.4a1.49,1.49,0,0,1-.79,1.33,3.17,3.17,0,0,1-1.73.49,3.44,3.44,0,0,1-1.55-.38,1.64,1.64,0,0,1-.93-1.23.83.83,0,0,1,0-.12c0-.13.12-.2.37-.2s.31.06.34.17a1.67,1.67,0,0,0,1.81,1.36,2.42,2.42,0,0,0,1.18-.36,1.12,1.12,0,0,0,.59-1,.84.84,0,0,0-.58-.76,3.69,3.69,0,0,0-1.09-.27c-.26,0-.54-.07-.83-.13a2.91,2.91,0,0,1-.8-.28,1.41,1.41,0,0,1-.84-1.32,1.3,1.3,0,0,1,.83-1.26A3.79,3.79,0,0,1,61,129a3.14,3.14,0,0,1,1.4.34,1.68,1.68,0,0,1,.87,1.09.49.49,0,0,1,0,.12c0,.12-.12.18-.37.18s-.32-.06-.35-.18A1.42,1.42,0,0,0,61,129.44a2.42,2.42,0,0,0-1.11.29,1,1,0,0,0-.56.94c0,.31.21.56.64.75a2.7,2.7,0,0,0,.63.19,3.64,3.64,0,0,0,.55.09c.29,0,.59.08.88.14a2.48,2.48,0,0,1,.8.32A1.4,1.4,0,0,1,63.43,133.4Z"/><path class="cls-1" d="M73,135.22a.46.46,0,0,1-.41-.15l-2.22-3-1.06,1v2q0,.18-.36.18t-.36-.18v-5.82q0-.18.36-.18t.36.18v3.2l3.54-3.3a.41.41,0,0,1,.27-.08l.15,0c.11,0,.16.07.16.14s0,0,0,.07l-2.46,2.29,2.48,3.36a.16.16,0,0,1,0,.08c0,.08-.07.15-.21.18A.62.62,0,0,1,73,135.22Z"/><path class="cls-1" d="M79,135c0,.13-.11.2-.35.2s-.36-.07-.36-.2v-5.78c0-.13.12-.2.36-.2s.35.07.35.2Z"/><path class="cls-1" d="M88.78,135.22a.48.48,0,0,1-.4-.14L84.65,130v5.09c0,.09-.08.14-.26.14s-.26-.05-.26-.14v-5.79c0-.16.15-.25.44-.25a.5.5,0,0,1,.41.14l3.72,5.09v-5.09c0-.09.09-.14.26-.14s.26.05.26.14V135C89.22,135.14,89.07,135.22,88.78,135.22Z"/><path class="cls-1" d="M103.79,133.4a1.51,1.51,0,0,1-.79,1.33,3.17,3.17,0,0,1-1.73.49,3.52,3.52,0,0,1-1.56-.38,1.65,1.65,0,0,1-.92-1.23.83.83,0,0,1,0-.12c0-.13.12-.2.37-.2s.31.06.34.17a1.67,1.67,0,0,0,1.81,1.36,2.42,2.42,0,0,0,1.18-.36,1.12,1.12,0,0,0,.59-1,.84.84,0,0,0-.58-.76,3.69,3.69,0,0,0-1.09-.27c-.26,0-.54-.07-.83-.13a2.91,2.91,0,0,1-.8-.28,1.41,1.41,0,0,1-.84-1.32,1.3,1.3,0,0,1,.83-1.26,3.79,3.79,0,0,1,1.56-.38,3.14,3.14,0,0,1,1.4.34,1.68,1.68,0,0,1,.87,1.09.49.49,0,0,1,0,.12c0,.12-.13.18-.37.18s-.32-.06-.35-.18a1.42,1.42,0,0,0-1.58-1.15,2.42,2.42,0,0,0-1.11.29,1,1,0,0,0-.56.94c0,.31.21.56.64.75a2.7,2.7,0,0,0,.63.19,3.64,3.64,0,0,0,.55.09c.29,0,.58.08.88.14a2.34,2.34,0,0,1,.79.32A1.39,1.39,0,0,1,103.79,133.4Z"/><path class="cls-1" d="M113.83,133.12c.23,0,.35.07.35.2a.81.81,0,0,1-.05.25,2,2,0,0,1-1,1.23,3.22,3.22,0,0,1-1.57.42,2.65,2.65,0,0,1-2.1-.86,3.24,3.24,0,0,1-.74-2.19,3.37,3.37,0,0,1,.75-2.24,2.67,2.67,0,0,1,2.15-.89,3.07,3.07,0,0,1,1.59.45,1.87,1.87,0,0,1,.93,1.29.44.44,0,0,1,0,.15q0,.21-.36.21c-.22,0-.34-.06-.35-.18a1.62,1.62,0,0,0-1.83-1.52,1.83,1.83,0,0,0-1.65.85,3.41,3.41,0,0,0-.54,1.85A3.49,3.49,0,0,0,110,134a1.74,1.74,0,0,0,1.62.85,2,2,0,0,0,1.23-.42,1.69,1.69,0,0,0,.67-1.1Q113.5,133.12,113.83,133.12Z"/><path class="cls-1" d="M119.84,135c0,.13-.12.2-.36.2s-.36-.07-.36-.2v-5.78c0-.13.12-.2.36-.2s.36.07.36.2Z"/><path class="cls-1" d="M125,129.35c0-.13.12-.2.35-.2h4c.23,0,.35.07.35.2s-.12.2-.35.2h-3.63v2.38h3.1c.24,0,.36.06.36.2s-.12.2-.36.2h-3.1v2.38h3.63c.23,0,.35.07.35.2s-.12.2-.35.2h-4c-.23,0-.35-.06-.35-.2Z"/><path class="cls-1" d="M139.61,135.22a.48.48,0,0,1-.4-.14L135.48,130v5.09c0,.09-.09.14-.26.14s-.26-.05-.26-.14v-5.79c0-.16.15-.25.44-.25a.48.48,0,0,1,.4.14l3.73,5.09v-5.09c0-.09.09-.14.26-.14s.26.05.26.14V135C140.05,135.14,139.9,135.22,139.61,135.22Z"/><path class="cls-1" d="M150.31,133.12c.24,0,.36.07.36.2a.93.93,0,0,1-.06.25,2,2,0,0,1-1,1.23,3.15,3.15,0,0,1-1.56.42,2.65,2.65,0,0,1-2.1-.86,3.2,3.2,0,0,1-.75-2.19,3.37,3.37,0,0,1,.75-2.24,2.68,2.68,0,0,1,2.16-.89,3,3,0,0,1,1.58.45,1.87,1.87,0,0,1,.93,1.29.49.49,0,0,1,0,.15q0,.21-.36.21t-.36-.18a1.61,1.61,0,0,0-1.82-1.52,1.84,1.84,0,0,0-1.66.85,3.41,3.41,0,0,0-.54,1.85,3.49,3.49,0,0,0,.51,1.83,1.76,1.76,0,0,0,1.63.85,2,2,0,0,0,1.23-.42,1.73,1.73,0,0,0,.67-1.1C150,133.18,150.09,133.12,150.31,133.12Z"/><path class="cls-1" d="M155.83,129.35c0-.13.12-.2.35-.2h4c.24,0,.36.07.36.2s-.12.2-.36.2h-3.62v2.38h3.1c.24,0,.36.06.36.2s-.12.2-.36.2h-3.1v2.38h3.62c.24,0,.36.07.36.2s-.12.2-.36.2h-4c-.23,0-.35-.06-.35-.2Z"/></g></svg>